<svg id="Layer_1" xmlns="http://www.w3.org/2000/svg" viewBox="0 0 30.13 37"><defs><style>
      .cls-1 {
        fill: #fff;
        fill-rule: evenodd;
        stroke: #fff;
        stroke-miterlimit: 10;
      }
    </style></defs><path class="cls-1" d="m8.14,18.49c0,.16.06.31.18.42l12.69,12.11h0c.11.11.26.17.41.16.15,0,.3-.07.41-.18.11-.11.16-.26.16-.42,0-.15-.07-.3-.18-.41l-12.25-11.7,12.25-11.7h0c.11-.1.18-.25.18-.41,0-.15-.05-.3-.16-.42-.11-.11-.25-.18-.41-.18-.15,0-.3.06-.41.16l-12.69,12.11c-.11.11-.18.26-.18.41h0Z"></path></svg>