<?xml version="1.0" encoding="UTF-8" standalone="no"?>
<svg
   id="svg363031"
   viewBox="0 0 482.24951 39.671265"
   height="39.671265"
   width="482.24951"
   version="1.1"
   xmlns:xlink="http://www.w3.org/1999/xlink"
   xmlns="http://www.w3.org/2000/svg"
   xmlns:svg="http://www.w3.org/2000/svg"
   xmlns:rdf="http://www.w3.org/1999/02/22-rdf-syntax-ns#"
   xmlns:cc="http://creativecommons.org/ns#"
   xmlns:dc="http://purl.org/dc/elements/1.1/">
  <metadata
     id="metadata363037">
    <rdf:rdf>
      <cc:work
         rdf:about="">
        <dc:format>image/svg+xml</dc:format>
        <dc:type
           rdf:resource="http://purl.org/dc/dcmitype/StillImage" />
      </cc:work>
    </rdf:rdf>
  </metadata>
  <defs
     id="defs363035" />
  <linearGradient
     spreadMethod="pad"
     y2="0.30000001"
     x2="-0.1"
     y1="1.2"
     x1="0.30000001"
     id="3d_gradient2-logo-359b2a50-3f6e-41e2-bcff-a6b28237563b">
    <stop
       id="stop363012"
       stop-opacity="1"
       stop-color="#ffffff"
       offset="0%" />
    <stop
       id="stop363014"
       stop-opacity="1"
       stop-color="#000000"
       offset="100%" />
  </linearGradient>
  <linearGradient
     gradientTransform="rotate(-30)"
     spreadMethod="pad"
     y2="0.30000001"
     x2="-0.1"
     y1="1.2"
     x1="0.30000001"
     id="3d_gradient3-logo-359b2a50-3f6e-41e2-bcff-a6b28237563b">
    <stop
       id="stop363017"
       stop-opacity="1"
       stop-color="#ffffff"
       offset="0%" />
    <stop
       id="stop363019"
       stop-opacity="1"
       stop-color="#cccccc"
       offset="50%" />
    <stop
       id="stop363021"
       stop-opacity="1"
       stop-color="#000000"
       offset="100%" />
  </linearGradient>
  <g
     id="logo-group"
     transform="translate(-270.88367,-364.155)">
    <image
       xlink:href=""
       id="container"
       x="272"
       y="144"
       width="480"
       height="480"
       style="display:none" />
    <g
       id="logo-center">
      <image
         xlink:href=""
         id="icon_container"
         x="0"
         y="0"
         style="display:none" />
      <g
         id="slogan"
         style="font-style:normal;font-weight:400;font-size:32px;line-height:1;font-family:Arvo;font-variant-ligatures:none;text-align:center;text-anchor:middle" />
      <g
         id="title"
         style="font-style:normal;font-weight:normal;font-size:72px;line-height:1;font-family:'Brandmark Sans 14 Color';font-variant-ligatures:normal;text-align:center;text-anchor:middle">
        <g
           id="path363040"
           aria-label="A"
           transform="matrix(0.75,0,0,0.75,128.14217,402.603)">
          <path
             class="c1"
             d="M 125.35542,121.9545 H 111.49128 L 99.98836,87.44266 88.48384,121.9545 H 74.62056 L 92.64302,72.04483 h 14.68921 z"
             transform="translate(115.70144,-122.01283)"
             stroke-width="0"
             stroke-linejoin="miter"
             stroke-miterlimit="2"
             fill="#295e88"
             stroke="#295e88"
             id="path21" />
          <path
             class="c3"
             d="m 93.42134,113.17764 c 0,-3.72205 2.92346,-6.73901 6.52954,-6.73901 3.60608,0 6.52954,3.01697 6.52954,6.73901 0,3.72204 -2.92346,6.73901 -6.52954,6.73901 -3.60608,0 -6.52954,-3.01696 -6.52954,-6.73901 z"
             transform="translate(115.70144,-122.01283)"
             stroke-width="0"
             stroke-linejoin="miter"
             stroke-miterlimit="2"
             fill="#c7a95b"
             stroke="#c7a95b"
             id="path23" />
        </g>
        <g
           id="path363042"
           aria-label="G"
           transform="matrix(0.75,0,0,0.75,128.14217,402.603)">
          <path
             class="c1"
             d="m 125.64375,94.07364 c 0,25.77966 -17.07568,29.573 -25.15332,29.573 -16.32666,0 -25.86963,-11.8407 -25.86963,-26.44714 0,-14.60718 9.54297,-26.44788 25.86963,-26.44788 10.27393,0 18.49072,5.43286 22.72803,13.47302 l -12.28418,5.19592 c -2.06494,-4.45349 -5.92822,-7.4375 -10.73242,-7.4375 -7.81055,0 -12.37573,6.8125 -12.37573,15.21643 0,8.40308 4.56519,15.21558 12.37573,15.21558 9.69556,0 10.9248,-7.0271 10.9248,-8.63428 H 100.2126 v -9.70422 h 11.56274 v -0.0029 z"
             transform="translate(166.37007,-122.01562)"
             stroke-width="0"
             stroke-linejoin="miter"
             stroke-miterlimit="2"
             fill="#295e88"
             stroke="#295e88"
             id="path26" />
        </g>
        <g
           id="path363044"
           aria-label="O"
           transform="matrix(0.75,0,0,0.75,128.14217,402.603)">
          <path
             class="c1"
             d="m 126.87032,97.04678 c 0,14.50708 -12.03467,26.26648 -26.88135,26.26648 -14.84521,0 -26.88037,-11.7594 -26.88037,-26.26648 0,-14.50708 12.03516,-26.26709 26.88037,-26.26709 14.84668,0 26.88135,11.76001 26.88135,26.26709 z m -12.87305,0 c 0,-7.5592 -6.271,-13.68762 -14.0083,-13.68762 -7.73633,0 -14.00732,6.12842 -14.00732,13.68762 0,7.5592 6.27197,13.68774 14.00732,13.68774 7.7373,1e-5 14.0083,-6.12853 14.0083,-13.68774 z"
             transform="translate(222.3694,-121.97169)"
             stroke-width="0"
             stroke-linejoin="miter"
             stroke-miterlimit="2"
             fill="#295e88"
             stroke="#295e88"
             id="path29" />
        </g>
        <g
           id="path363046"
           aria-label="S"
           transform="matrix(0.75,0,0,0.75,128.14217,402.603)">
          <path
             class="c1"
             d="m 117.75557,106.42703 c 0,11.54834 -9.08398,16.91284 -18.80078,16.91284 -9.7168,0 -17.0625,-5.61572 -17.0625,-5.61572 l 5.40869,-10.43884 c 3.28955,3.44055 8.65576,5.07141 11.65381,5.07141 3,0 5.53711,-2.31921 5.53711,-4.74011 0,-8.7876 -20.60352,-3.23669 -20.60352,-20.48071 0,-11.05298 7.91602,-16.38501 16.80469,-16.38501 8.56836,0 15.06592,4.03015 15.06592,4.03015 l -5.02148,10.10901 c 0,0 -4.20068,-3.36987 -8.11279,-3.36987 -2.91797,0 -5.53662,1.08289 -5.53662,4.29443 -1e-5,7.46411 20.66698,2.65991 20.66747,20.61242 z"
             transform="translate(270.67608,-122.01489)"
             stroke-width="0"
             stroke-linejoin="miter"
             stroke-miterlimit="2"
             fill="#295e88"
             stroke="#295e88"
             id="path32" />
        </g>
        <g
           id="path363048"
           aria-label="T"
           transform="matrix(0.75,0,0,0.75,128.14217,402.603)">
          <path
             class="c1"
             d="M 116.64717,72.13846 V 83.22952 H 106.21065 V 121.9545 H 93.7336 V 83.22952 H 83.2961 V 72.13846 h 10.4375 v -0.09363 h 12.47705 v 0.09363 z"
             transform="translate(307.49528,-122.01283)"
             stroke-width="0"
             stroke-linejoin="miter"
             stroke-miterlimit="2"
             fill="#295e88"
             stroke="#295e88"
             id="path35" />
        </g>
        <g
           id="path363050"
           aria-label="O"
           transform="matrix(0.75,0,0,0.75,128.14217,402.603)">
          <path
             class="c1"
             d="m 126.87032,97.04678 c 0,14.50708 -12.03467,26.26648 -26.88135,26.26648 -14.84521,0 -26.88037,-11.7594 -26.88037,-26.26648 0,-14.50708 12.03516,-26.26709 26.88037,-26.26709 14.84668,0 26.88135,11.76001 26.88135,26.26709 z m -12.87305,0 c 0,-7.5592 -6.271,-13.68762 -14.0083,-13.68762 -7.73633,0 -14.00732,6.12842 -14.00732,13.68762 0,7.5592 6.27197,13.68774 14.00732,13.68774 7.7373,1e-5 14.0083,-6.12853 14.0083,-13.68774 z"
             transform="translate(352.72877,-121.97169)"
             stroke-width="0"
             stroke-linejoin="miter"
             stroke-miterlimit="2"
             fill="#295e88"
             stroke="#295e88"
             id="path38" />
        </g>
        <g
           id="path363052"
           aria-label="N"
           transform="matrix(0.75,0,0,0.75,128.14217,402.603)">
          <path
             class="c1"
             d="M 124.21992,72.04483 V 121.9545 H 111.74287 L 88.21407,91.15237 v 30.80212 H 75.73653 V 72.04483 h 12.47754 l 23.52881,30.80212 V 72.04483 Z"
             transform="translate(409.56722,-122.01283)"
             stroke-width="0"
             stroke-linejoin="miter"
             stroke-miterlimit="2"
             fill="#295e88"
             stroke="#295e88"
             id="path41" />
        </g>
        <g
           id="path363054"
           aria-label="R"
           transform="matrix(0.75,0,0,0.75,128.14217,402.603)">
          <path
             class="c1"
             d="m 121.81953,121.9545 h -15.25 L 95.51875,103.98599 H 94.22627 V 121.9545 H 81.74873 V 72.04483 h 19.80762 c 5.28662,0 15.73242,2.17822 15.73242,15.97095 0,9.30176 -4.75146,13.31763 -9.46729,14.94849 z M 104.69942,88.01578 c 0,-4.56226 -2.99414,-5.90808 -6.00537,-5.90808 h -4.46777 v 11.81616 h 4.46777 c 3.01123,0 6.00537,-1.3457 6.00537,-5.90808 z"
             transform="translate(481.0394,-122.01283)"
             stroke-width="0"
             stroke-linejoin="miter"
             stroke-miterlimit="2"
             fill="#295e88"
             stroke="#295e88"
             id="path44" />
        </g>
        <g
           id="path363056"
           aria-label="E"
           transform="matrix(0.75,0,0,0.75,128.14217,402.603)">
          <path
             class="c1"
             d="m 98.83369,110.86331 h 15.3374 V 121.9545 H 86.3564 V 72.04483 h 12.47729 v 0.09363 h 15.3374 v 11.09106 h -15.3374 z"
             transform="translate(520.86923,-122.01283)"
             stroke-width="0"
             stroke-linejoin="miter"
             stroke-miterlimit="2"
             fill="#295e88"
             stroke="#295e88"
             id="path47" />
          <path
             class="c3"
             d="m 101.65059,97.04178 c 0,-3.72205 2.92358,-6.73914 6.53027,-6.73914 3.60596,0 6.52954,3.01709 6.52954,6.73914 0,3.72205 -2.92358,6.73901 -6.52954,6.73901 -3.60669,0 -6.53027,-3.01697 -6.53027,-6.73901 z"
             transform="translate(520.86923,-122.01283)"
             stroke-width="0"
             stroke-linejoin="miter"
             stroke-miterlimit="2"
             fill="#c7a95b"
             stroke="#c7a95b"
             id="path49" />
        </g>
        <g
           id="path363058"
           aria-label="I"
           transform="matrix(0.75,0,0,0.75,128.14217,402.603)">
          <path
             class="c1"
             d="M 93.73653,121.9545 V 72.04483 h 12.47754 v 49.90967 z"
             transform="translate(548.64535,-122.01283)"
             stroke-width="0"
             stroke-linejoin="miter"
             stroke-miterlimit="2"
             fill="#295e88"
             stroke="#295e88"
             id="path52" />
        </g>
        <g
           id="path363060"
           aria-label="S"
           transform="matrix(0.75,0,0,0.75,128.14217,402.603)">
          <path
             class="c1"
             d="m 117.75557,106.42703 c 0,11.54834 -9.08398,16.91284 -18.80078,16.91284 -9.7168,0 -17.0625,-5.61572 -17.0625,-5.61572 l 5.40869,-10.43884 c 3.28955,3.44055 8.65576,5.07141 11.65381,5.07141 3,0 5.53711,-2.31921 5.53711,-4.74011 0,-8.7876 -20.60352,-3.23669 -20.60352,-20.48071 0,-11.05298 7.91602,-16.38501 16.80469,-16.38501 8.56836,0 15.06592,4.03015 15.06592,4.03015 l -5.02148,10.10901 c 0,0 -4.20068,-3.36987 -8.11279,-3.36987 -2.91797,0 -5.53662,1.08289 -5.53662,4.29443 -1e-5,7.46411 20.66698,2.65991 20.66747,20.61242 z"
             transform="translate(578.50421,-122.01489)"
             stroke-width="0"
             stroke-linejoin="miter"
             stroke-miterlimit="2"
             fill="#295e88"
             stroke="#295e88"
             id="path55" />
        </g>
        <g
           id="path363062"
           aria-label="C"
           transform="matrix(0.75,0,0,0.75,128.14217,402.603)">
          <path
             class="c1"
             d="m 124.7419,109.90213 c -4.22314,8.18994 -12.54492,13.74451 -22.84741,13.74451 -16.32666,0 -25.86963,-11.8407 -25.86963,-26.44714 0,-14.60718 9.54297,-26.44788 25.86963,-26.44788 10.27368,0 18.49048,5.43286 22.72729,13.47229 l -12.28418,5.19604 c -2.06519,-4.45361 -5.92847,-7.43762 -10.73267,-7.43762 -7.81055,0 -12.37573,6.8125 -12.37573,15.21643 0,8.40308 4.56519,15.21558 12.37573,15.21558 4.79419,0 8.68896,-3.02283 10.75854,-7.52393 z"
             transform="translate(624.10664,-122.01562)"
             stroke-width="0"
             stroke-linejoin="miter"
             stroke-miterlimit="2"
             fill="#295e88"
             stroke="#295e88"
             id="path58" />
        </g>
        <g
           id="path363064"
           aria-label="H"
           transform="matrix(0.75,0,0,0.75,128.14217,402.603)">
          <path
             class="c1"
             d="M 121.717,72.04483 V 121.9545 H 109.2397 V 101.23831 H 90.73409 V 121.9545 H 78.25703 V 72.04483 H 90.73408 V 91.53397 H 109.2397 V 72.04483 Z"
             transform="translate(675.7811,-122.01283)"
             stroke-width="0"
             stroke-linejoin="miter"
             stroke-miterlimit="2"
             fill="#295e88"
             stroke="#295e88"
             id="path61" />
        </g>
        <g
           id="path363066"
           aria-label="L"
           transform="matrix(0.75,0,0,0.75,128.14217,402.603)">
          <path
             class="c1"
             d="M 115.64717,110.86331 V 121.9545 H 87.83272 V 72.04483 h 12.47705 v 38.81848 z"
             transform="translate(717.67416,-122.01283)"
             stroke-width="0"
             stroke-linejoin="miter"
             stroke-miterlimit="2"
             fill="#295e88"
             stroke="#295e88"
             id="path64" />
        </g>
      </g>
      <image
         xlink:href=""
         id="icon"
         x="0"
         y="0"
         style="display:none" />
    </g>
  </g>
</svg>
