<svg xmlns="http://www.w3.org/2000/svg" viewBox="0 0 93.06 53.22"><defs><style>.cls-1{fill:#fff;}.cls-2{fill:#1d4851;}</style></defs><title>Fichier 1</title><g id="Calque_2" data-name="Calque 2"><g id="Layer_1" data-name="Layer 1"><g id="Homepage"><g id="Logotype_RGB" data-name="Logotype RGB"><path id="Path" class="cls-1" d="M90.34,24l-16.1,22.8h0a5.55,5.55,0,0,1-.6.8,15.46,15.46,0,0,1-10.5,5.6,15.16,15.16,0,0,1-11.3-3.8c-1-.9-1.8-1.8-2.8-2.7l-2.5-2.5L44,46.68a35.69,35.69,0,0,1-2.8,2.7,15,15,0,0,1-21.8-1.8c-.2-.3-.4-.5-.6-.8L2.84,24a15.12,15.12,0,0,1,23-19.5l5,5,3.6-3.6,1.4-1.4a15.13,15.13,0,0,1,20.6-.8c.6.5,1.1,1.1,1.7,1.6l4.1,4.1,5-5A15.22,15.22,0,0,1,90.34,24"/><path id="Shape" class="cls-2" d="M28.84,20.68l-1,3.8-1,3.8-1.2-3.7-1.3-3.9h-1.4l-1.3,3.9-1.1,3.7-.9-3.8-1-3.8h-2.2l3.4,10.6h1.6l2.3-7.4,2.4,7.4h1.6L31,20.68Zm9,7.1a3.36,3.36,0,0,0-3.4-3.6,3.52,3.52,0,0,0-3.6,3.6,3.63,3.63,0,0,0,3.8,3.6,4.86,4.86,0,0,0,2.9-.9l-.8-1.4a2.57,2.57,0,0,1-1.8.7,2.12,2.12,0,0,1-2.1-1.4h5v-.6Zm-3.4-2a1.43,1.43,0,0,1,1.5,1.3h-3.2a1.62,1.62,0,0,1,1.7-1.3Zm8.9-1.6a2.72,2.72,0,0,0-2.1.9v-4.6h-2v10.7h1.6l.1-.9a3.19,3.19,0,0,0,2.4,1.1,3.42,3.42,0,0,0,3.4-3.6,3.42,3.42,0,0,0-3.4-3.6Zm-.4,5.4a1.8,1.8,0,1,1,0-3.6,1.71,1.71,0,0,1,1.7,1.8,1.65,1.65,0,0,1-1.7,1.8Zm9.2-5.4a2.82,2.82,0,0,0-2,.7v-4.4h-2v10.7h2v-3.6a1.6,1.6,0,0,1,1.6-1.7,1.53,1.53,0,0,1,1.5,1.7v3.6h2v-3.8a3,3,0,0,0-3.1-3.2Zm11.6,3.6a3.36,3.36,0,0,0-3.4-3.6,3.52,3.52,0,0,0-3.6,3.6,3.63,3.63,0,0,0,3.8,3.6,4.86,4.86,0,0,0,2.9-.9l-.8-1.4a2.57,2.57,0,0,1-1.8.7,2.12,2.12,0,0,1-2.1-1.4h5.1c-.2,0-.1-.3-.1-.6Zm-3.4-2a1.43,1.43,0,0,1,1.5,1.3h-3.2a1.55,1.55,0,0,1,1.7-1.3Zm4.8,5.5h2V20.58h-2Zm7.9-7.1a2.9,2.9,0,0,0-2.3,1l-.1-.8h-1.7v9.9h2v-3.7a2.72,2.72,0,0,0,2.1.9,3.35,3.35,0,0,0,3.3-3.6,3.43,3.43,0,0,0-3.3-3.7Zm-.4,5.4a1.73,1.73,0,0,1-1.8-1.8,1.68,1.68,0,0,1,1.8-1.8,1.8,1.8,0,0,1,0,3.6Z"/></g></g></g></g></svg>